<?xml version="1.0" encoding="UTF-8" standalone="no"?>
<svg
   xmlns:dc="http://purl.org/dc/elements/1.1/"
   xmlns:cc="http://creativecommons.org/ns#"
   xmlns:rdf="http://www.w3.org/1999/02/22-rdf-syntax-ns#"
   xmlns:svg="http://www.w3.org/2000/svg"
   xmlns="http://www.w3.org/2000/svg"
   width="340"
   height="129.3058532945248"
   viewBox="0 0 340 129.3058532945248"
   class="css-1j8o68f"
   version="1.1"
   id="svg847">
  <metadata
     id="metadata851">
    <rdf:RDF>
      <cc:Work
         rdf:about="">
        <dc:format>image/svg+xml</dc:format>
        <dc:type
           rdf:resource="http://purl.org/dc/dcmitype/StillImage" />
        <dc:title></dc:title>
      </cc:Work>
    </rdf:RDF>
  </metadata>
  <defs
     id="SvgjsDefs3168" />
  <g
     id="SvgjsG3169"
     featurekey="nameFeature-0"
     transform="matrix(3.191161200240058,0,0,3.191161200240058,-0.013187503119411689,-51.44151513934184)"
     fill="#000000">
    <path
       d="M2.2 26.92 c1.84 -8.64 2.88 -10.8 3.52 -10.8 c0.36 0 0.44 0.96 0.36 1.32 c-0.12 0.48 -0.64 1.32 -1.08 2.28 c-0.08 0.2 -1.12 4.16 -1.88 7.72 c-1.12 5 -1.88 9.8 -2.16 11.96 c2.28 -1.52 3.6 -2.52 4.48 -2.56 c0.76 0 0.84 0.64 0.84 1.48 c0 1.04 -0.08 1.52 0.64 1.52 c2.72 0 7.36 -2.6 10.72 -4.56 c0.48 -0.24 0.92 0.28 0.2 0.64 c-4.4 2.4 -7.44 4.64 -10.76 4.68 c-1.16 0 -1.72 -0.8 -1.72 -1.8 c0 -0.56 0.12 -1 -0.12 -1 c-0.4 0 -2.48 1.2 -4 2.2 c-0.32 0.24 -0.64 0.48 -0.88 0.48 s-0.44 -0.44 -0.32 -1.28 c0.32 -2.4 1.04 -7.08 2.16 -12.28 z M24.828 40.2 c2.8 0 10.92 -3.76 13.36 -5.08 c0.2 -0.12 1.04 -0.08 0.36 0.36 c-2.64 1.72 -11.12 5.56 -13.76 5.56 c-1.96 0 -2.52 -1.16 -2.52 -2 s0.16 -1.24 0.08 -1.32 c-0.12 -0.12 -0.36 -0.08 -1.64 0.6 c-1.16 0.68 -2.44 1.2 -2.84 1.2 c-0.56 0 -0.96 -0.36 -0.96 -0.6 c0 -0.76 0.48 -1.8 2 -2.92 c1.28 -1 2.08 -1.2 2.76 -1.2 c0.92 0 1.48 1.44 1.08 1.44 s-0.52 -0.8 -0.96 -0.8 c-0.4 0 -1.2 0.32 -2.32 1.08 c-1.04 0.68 -1.84 1.84 -1.84 2.16 c0 0.08 0.04 0.12 0.16 0.12 c0.36 0 1.04 -0.28 2.16 -0.84 c1.52 -0.72 2.52 -1.28 3 -1.28 c0.16 0 0.52 0.08 0.52 0.36 c0 0.32 -0.4 1.04 -0.4 1.96 c0 0.68 0.72 1.2 1.76 1.2 z M53.135999999999996 34.96 c0.2 0 0.36 0.4 0.16 0.48 c-0.48 0.12 -2.4 1.2 -7 2.76 c-3.64 1.24 -4.56 1.44 -5.2 1.44 c-1.04 0 -1.36 -0.72 -1.36 -1.36 c0 -0.6 0.16 -1.64 0.4 -2.32 c0.16 -0.56 0.36 -0.88 1.04 -1 c0.2 -0.04 0.44 0.2 0.2 0.64 c-0.6 1.24 -0.72 2 -0.8 2.64 c-0.04 0.48 0.16 0.72 0.36 0.72 c0.52 0 1.64 -0.12 5.04 -1.32 c3.92 -1.4 6.92 -2.68 7.16 -2.68 z M41.976 32.12 c-0.2 -0.08 -0.36 -0.76 -0.28 -1.04 c0.08 -0.24 0.4 -0.68 0.64 -0.64 c0.36 0.08 0.6 0.56 0.52 0.92 c-0.12 0.36 -0.64 0.8 -0.88 0.76 z M61.604 35.84 c-0.68 0 -1.64 1 -3 2.48 c-1.4 1.52 -2.8 2.92 -3.72 2.92 c-0.56 0 -1.04 -0.52 -0.8 -1.44 c0.28 -1 0.64 -2.28 0.92 -3.12 c0.32 -1.04 0.12 -1.48 0.52 -1.56 c0.4 -0.04 0.56 0.28 0.56 0.4 c0 0.32 -0.12 0.64 -0.48 1.56 c-0.28 0.8 -0.68 2 -0.76 2.32 c-0.16 0.68 -0.12 0.92 0.16 0.92 c0.48 0 1.88 -1 3.12 -2.4 c2 -2.16 2.68 -3.12 3.64 -3.12 c1 0 1.2 1.72 1.24 2.96 c3.12 -1.84 6.08 -2.88 6.84 -2.88 c0.6 0 0.76 0.68 0.2 0.68 c-0.8 0 -3.84 1.04 -7.04 3.08 c-0.08 3.64 -1.44 9.28 -3.28 12.56 c-1.84 3.24 -4.28 5.44 -6.4 5.44 c-1.08 0 -2.52 -0.72 -2.52 -2.76 c0 -2.96 2.36 -7.44 7 -12.16 c1.32 -1.36 2.88 -2.52 4.44 -3.48 c-0.04 -1.4 -0.12 -2.4 -0.64 -2.4 z M59.004000000000005 50.64 c1.88 -3.28 3.16 -8.8 3.24 -11.52 c-1.36 0.88 -2.68 1.92 -3.88 3.16 c-4.84 4.88 -6.76 9.44 -6.76 11.72 c0 1.16 0.48 1.88 1.4 1.88 c1.48 0 3.96 -1.64 6 -5.24 z M78.712 40.2 c2.8 0 10.92 -3.76 13.36 -5.08 c0.2 -0.12 1.04 -0.08 0.36 0.36 c-2.64 1.72 -11.12 5.56 -13.76 5.56 c-1.96 0 -2.52 -1.16 -2.52 -2 s0.16 -1.24 0.08 -1.32 c-0.12 -0.12 -0.36 -0.08 -1.64 0.6 c-1.16 0.68 -2.44 1.2 -2.84 1.2 c-0.56 0 -0.96 -0.36 -0.96 -0.6 c0 -0.76 0.48 -1.8 2 -2.92 c1.28 -1 2.08 -1.2 2.76 -1.2 c0.92 0 1.48 1.44 1.08 1.44 s-0.52 -0.8 -0.96 -0.8 c-0.4 0 -1.2 0.32 -2.32 1.08 c-1.04 0.68 -1.84 1.84 -1.84 2.16 c0 0.08 0.04 0.12 0.16 0.12 c0.36 0 1.04 -0.28 2.16 -0.84 c1.52 -0.72 2.52 -1.28 3 -1.28 c0.16 0 0.52 0.08 0.52 0.36 c0 0.32 -0.4 1.04 -0.4 1.96 c0 0.68 0.72 1.2 1.76 1.2 z M94.22 40.8 c-0.24 0 -0.84 -0.4 -0.28 -1.04 s1.24 -0.96 1.68 -0.96 c0.4 0 -0.16 0.92 -0.4 1.2 c-0.2 0.24 -0.84 0.8 -1 0.8 z M99.26 34 c-0.36 0 -0.48 -0.44 -0.2 -1.04 c0.32 -0.6 1.92 -3.4 3.72 -6.24 c1.8 -2.88 3.4 -4.8 3.64 -4.8 c0.2 0 0.44 0.12 -1.6 3.28 s-5.16 8.8 -5.56 8.8 z"
       id="path844" />
  </g>
</svg>
